<svg xmlns="http://www.w3.org/2000/svg" xmlns:xlink="http://www.w3.org/1999/xlink" version="1.1" x="0px" y="0px" viewBox="0 0 32 40" enable-background="new 0 0 32 32" xml:space="preserve"><g><path d="M29.121,16.879C29.687,17.445,30,18.199,30,19s-0.313,1.555-0.879,2.121l-2,2c-0.135,0.135-0.281,0.252-0.435,0.357   c-0.004,0.003-0.007,0.006-0.011,0.009c-0.142,0.096-0.294,0.174-0.449,0.244c-0.021,0.009-0.04,0.024-0.063,0.033   c-0.145,0.061-0.297,0.103-0.45,0.14c-0.039,0.01-0.075,0.026-0.114,0.035C25.404,23.979,25.204,24,25,24   c-0.204,0-0.404-0.021-0.6-0.06c-0.039-0.008-0.074-0.025-0.113-0.035c-0.154-0.038-0.307-0.079-0.452-0.14   c-0.021-0.009-0.038-0.022-0.058-0.031c-0.157-0.07-0.311-0.149-0.453-0.246c-0.004-0.003-0.007-0.006-0.011-0.009   c-0.153-0.105-0.3-0.223-0.435-0.357l-2-2C20.312,20.555,20,19.801,20,19s0.312-1.555,0.879-2.121   c0.32-0.321,0.705-0.55,1.121-0.697V14h-6c-1.654,0-3-1.346-3-3s1.346-3,3-3h9c1.654,0,3,1.346,3,3v5.182   C28.416,16.329,28.801,16.558,29.121,16.879z M16,18h-6v-2.182c0.416-0.148,0.801-0.376,1.121-0.697C11.687,14.555,12,13.801,12,13   s-0.313-1.555-0.879-2.121l-2-2C8.986,8.744,8.84,8.627,8.686,8.521C8.683,8.519,8.68,8.516,8.676,8.513   c-0.14-0.095-0.289-0.171-0.442-0.24C8.209,8.261,8.188,8.246,8.164,8.235c-0.145-0.061-0.296-0.103-0.449-0.14   C7.676,8.086,7.64,8.069,7.6,8.061C7.404,8.021,7.204,8,7,8C6.796,8,6.596,8.021,6.4,8.061C6.361,8.069,6.324,8.086,6.285,8.096   C6.133,8.133,5.98,8.174,5.836,8.235C5.812,8.245,5.793,8.26,5.77,8.271C5.616,8.34,5.465,8.417,5.324,8.513   C5.32,8.516,5.317,8.519,5.313,8.521c-0.153,0.105-0.3,0.223-0.435,0.357l-2,2C2.312,11.445,2,12.199,2,13s0.312,1.555,0.879,2.121   c0.32,0.321,0.705,0.55,1.121,0.697V21c0,1.654,1.346,3,3,3h9c1.654,0,3-1.346,3-3S17.654,18,16,18z"/></g><text x="0" y="47" fill="#000000" font-size="5px" font-weight="bold" font-family="'Helvetica Neue', Helvetica, Arial-Unicode, Arial, Sans-serif">Created by wahyakup</text><text x="0" y="52" fill="#000000" font-size="5px" font-weight="bold" font-family="'Helvetica Neue', Helvetica, Arial-Unicode, Arial, Sans-serif">from the Noun Project</text></svg>